<svg xmlns="http://www.w3.org/2000/svg" width="85" height="85" viewBox="0 0 85 85">
  <g id="Group_1397257" data-name="Group 1397257" transform="translate(-179.928 -2071.203)">
    <g id="Group_1364485" data-name="Group 1364485" transform="translate(179.928 2071.203)">
      <path id="Path_902293" data-name="Path 902293" d="M76.969,0H8.032C3.6,0,0,3.23,0,7.214V77.786C0,81.77,3.6,85,8.032,85H76.969C81.4,85,85,81.77,85,77.786V7.214C85,3.23,81.4,0,76.969,0Z" transform="translate(0)" fill="#023f92"/>
    </g>
    <path id="audit_18818999" d="M57.14,43.254a8.927,8.927,0,0,0-6.311-15.24h0a8.925,8.925,0,1,0,6.316,15.24ZM55.95,31.817a7.258,7.258,0,0,1,.745,9.373l-1.008-1.008a5.839,5.839,0,0,0-4.02-9.021V29.745a7.2,7.2,0,0,1,4.283,2.072Zm-5.124.965A4.159,4.159,0,1,1,47.884,34a4.159,4.159,0,0,1,2.942-1.217ZM45.7,42.065a7.245,7.245,0,0,1,4.283-12.32v1.417a5.84,5.84,0,1,0,4.575,10.272l.995.995a7.255,7.255,0,0,1-9.852-.364Zm41.1-2.1a.839.839,0,0,1,0,1.188q-.733.735-1.46,1.472t-1.484,1.493a1.757,1.757,0,0,1-2.483,0c-.244-.244-.49-.521-.728-.789s-.487-.55-.733-.8a.841.841,0,1,1,1.188-1.19c.281.281.547.579.8.869.232.261.452.508.66.716a.076.076,0,0,0,.1,0q.741-.741,1.477-1.487t1.467-1.476a.84.84,0,0,1,1.19,0Zm-10.92.249H62.659a12.2,12.2,0,0,0,.316-1.5H76.508a7.6,7.6,0,0,0-.63,1.5Zm1.886-3.182H63.1c0-.031,0-.064,0-.095A12.333,12.333,0,0,0,63.03,35.6H78.772a.841.841,0,1,0,0-1.682H62.727a12.238,12.238,0,0,0-.553-1.662h19.35a.841.841,0,0,0,0-1.682H61.7a.832.832,0,0,0-.337.071A12.368,12.368,0,0,0,57.7,26.771V18.128a1.382,1.382,0,0,1,1.266-1.472H74.509l.033,10.565a.843.843,0,0,0,.841.839H84.9l.008,6.9a7.609,7.609,0,0,0-7.142,2.074Zm-1.57-19.042.026,8.383h7.613Zm-3.678-3.02L71.03,13.342H55.017a1.383,1.383,0,0,0-1.267,1.472v10.2a12.092,12.092,0,0,1,2.265.8V18.128a3.06,3.06,0,0,1,2.948-3.154Zm-23.976-4.5V24.878a12.224,12.224,0,0,1,2.285-.215,12.4,12.4,0,0,1,1.239.062l0-9.912a3.06,3.06,0,0,1,2.949-3.154H68.28L65.825,9H49.808a1.383,1.383,0,0,0-1.266,1.472ZM40.231,36.941a10.6,10.6,0,1,1,10.6,10.595,10.6,10.6,0,0,1-10.6-10.595Zm10.6,12.277a12.266,12.266,0,0,0,1.509-.092v1.682H49.318V49.125a12.242,12.242,0,0,0,1.509.092ZM47.45,53.5c.006-.34.01-.613.01-.8a.211.211,0,0,1,.208-.207h6.319a.211.211,0,0,1,.208.207c0,.188,0,.461.01.8.01.635.024,1.526.019,2.537l-3.262,2.214-3.531-2.357c0-.951.01-1.789.019-2.394Zm5.43,11.36c.336-.341.94-1.454,1.209-5.065.042-.562.072-1.134.093-1.7l-2.742,1.862a.84.84,0,0,1-.939,0l-3.032-2.023c.022.613.053,1.239.1,1.854.269,3.611.873,4.724,1.209,5.065.123.126.2.126.228.126h3.649c.031,0,.1,0,.228-.126ZM54.018,49.54V48.8a12.133,12.133,0,0,0,2-.73V49.54ZM84.9,51.38a1.385,1.385,0,0,1-1.266,1.474H58.962A1.383,1.383,0,0,1,57.7,51.383V47.112A12.36,12.36,0,0,0,62.057,41.9H75.58c-.011.163-.018.327-.018.493a7.679,7.679,0,0,0,.143,1.469H61.7a.841.841,0,0,0,0,1.682H76.245a7.625,7.625,0,0,0,1.209,1.87H61.7a.841.841,0,0,0,0,1.682H79.552a7.61,7.61,0,0,0,5.352.729L84.9,51.381Zm-1.708-3.042a5.944,5.944,0,0,0,2.258-11.444l-.034-.013a5.945,5.945,0,1,0-2.225,11.457ZM70.378,18.963H61.5a.841.841,0,0,0-.841.841v8.879a.84.84,0,0,0,.841.841h8.879a.84.84,0,0,0,.841-.841V19.8a.84.84,0,0,0-.841-.841Zm-.841,8.879v-7.2h-7.2v7.2Z" transform="translate(157.745 2076.711)" fill="#e4eaf3" fill-rule="evenodd"/>
  </g>
</svg>
