<svg xmlns="http://www.w3.org/2000/svg" width="201" height="75" viewBox="0 0 201 75">
  <g id="Group_1397417" data-name="Group 1397417" transform="translate(-37.452 -4796.73)">
    <path id="Path_1371399" data-name="Path 1371399" d="M7657-6792h71.892" transform="translate(-7554.108 11627.26)" fill="none" stroke="#12263f" stroke-width="1"/>
    <g id="Rectangle_472694" data-name="Rectangle 472694" transform="translate(138.946 4813.682) rotate(45)" fill="#fff" stroke="#12263f" stroke-width="1">
      <rect width="30.517" height="30.517" stroke="none"/>
      <rect x="0.5" y="0.5" width="29.517" height="29.517" fill="none"/>
    </g>
    <g id="Rectangle_472695" data-name="Rectangle 472695" transform="translate(172.452 4796.73)" fill="#fff" stroke="#12263f" stroke-width="1">
      <path d="M2,0H64a2,2,0,0,1,2,2V23a0,0,0,0,1,0,0H0a0,0,0,0,1,0,0V2A2,2,0,0,1,2,0Z" stroke="none"/>
      <path d="M2,.5H64A1.5,1.5,0,0,1,65.5,2V22.5a0,0,0,0,1,0,0H.5a0,0,0,0,1,0,0V2A1.5,1.5,0,0,1,2,.5Z" fill="none"/>
    </g>
    <g id="Rectangle_472696" data-name="Rectangle 472696" transform="translate(172.452 4817.73)" fill="#fff" stroke="#12263f" stroke-width="1">
      <rect width="23" height="20" stroke="none"/>
      <rect x="0.5" y="0.5" width="22" height="19" fill="none"/>
    </g>
    <g id="Rectangle_472697" data-name="Rectangle 472697" transform="translate(193.452 4817.73)" fill="#fff" stroke="#12263f" stroke-width="1">
      <rect width="24" height="20" stroke="none"/>
      <rect x="0.5" y="0.5" width="23" height="19" fill="none"/>
    </g>
    <g id="Rectangle_472698" data-name="Rectangle 472698" transform="translate(215.452 4817.73)" fill="#fff" stroke="#12263f" stroke-width="1">
      <rect width="23" height="20" stroke="none"/>
      <rect x="0.5" y="0.5" width="22" height="19" fill="none"/>
    </g>
    <g id="Rectangle_472701" data-name="Rectangle 472701" transform="translate(172.452 4834.73)" fill="#fff" stroke="#12263f" stroke-width="1">
      <rect width="23" height="20" stroke="none"/>
      <rect x="0.5" y="0.5" width="22" height="19" fill="none"/>
    </g>
    <g id="Rectangle_472700" data-name="Rectangle 472700" transform="translate(193.452 4834.73)" fill="#fff" stroke="#12263f" stroke-width="1">
      <rect width="24" height="20" stroke="none"/>
      <rect x="0.5" y="0.5" width="23" height="19" fill="none"/>
    </g>
    <g id="Rectangle_472699" data-name="Rectangle 472699" transform="translate(215.452 4834.73)" fill="#fff" stroke="#12263f" stroke-width="1">
      <rect width="23" height="20" stroke="none"/>
      <rect x="0.5" y="0.5" width="22" height="19" fill="none"/>
    </g>
    <g id="Rectangle_472702" data-name="Rectangle 472702" transform="translate(172.452 4852.73)" fill="#fff" stroke="#12263f" stroke-width="1">
      <rect width="23" height="19" stroke="none"/>
      <rect x="0.5" y="0.5" width="22" height="18" fill="none"/>
    </g>
    <g id="Rectangle_472703" data-name="Rectangle 472703" transform="translate(193.452 4852.73)" fill="#fff" stroke="#12263f" stroke-width="1">
      <rect width="24" height="19" stroke="none"/>
      <rect x="0.5" y="0.5" width="23" height="18" fill="none"/>
    </g>
    <g id="Rectangle_472684" data-name="Rectangle 472684" transform="translate(37.452 4796.73)" fill="#fff" stroke="#12263f" stroke-width="1">
      <path d="M2,0H64a2,2,0,0,1,2,2V23a0,0,0,0,1,0,0H0a0,0,0,0,1,0,0V2A2,2,0,0,1,2,0Z" stroke="none"/>
      <path d="M2,.5H64A1.5,1.5,0,0,1,65.5,2V22.5a0,0,0,0,1,0,0H.5a0,0,0,0,1,0,0V2A1.5,1.5,0,0,1,2,.5Z" fill="none"/>
    </g>
    <g id="Rectangle_472685" data-name="Rectangle 472685" transform="translate(37.452 4817.73)" fill="#fff" stroke="#12263f" stroke-width="1">
      <rect width="23" height="20" stroke="none"/>
      <rect x="0.5" y="0.5" width="22" height="19" fill="none"/>
    </g>
    <g id="Rectangle_472689" data-name="Rectangle 472689" transform="translate(58.452 4817.73)" fill="#fff" stroke="#12263f" stroke-width="1">
      <rect width="24" height="20" stroke="none"/>
      <rect x="0.5" y="0.5" width="23" height="19" fill="none"/>
    </g>
    <g id="Rectangle_472692" data-name="Rectangle 472692" transform="translate(80.452 4817.73)" fill="#fff" stroke="#12263f" stroke-width="1">
      <rect width="23" height="20" stroke="none"/>
      <rect x="0.5" y="0.5" width="22" height="19" fill="none"/>
    </g>
    <g id="Rectangle_472686" data-name="Rectangle 472686" transform="translate(37.452 4834.73)" fill="#fff" stroke="#12263f" stroke-width="1">
      <rect width="23" height="20" stroke="none"/>
      <rect x="0.5" y="0.5" width="22" height="19" fill="none"/>
    </g>
    <g id="Rectangle_472690" data-name="Rectangle 472690" transform="translate(58.452 4834.73)" fill="#fff" stroke="#12263f" stroke-width="1">
      <rect width="24" height="20" stroke="none"/>
      <rect x="0.5" y="0.5" width="23" height="19" fill="none"/>
    </g>
    <g id="Rectangle_472693" data-name="Rectangle 472693" transform="translate(80.452 4834.73)" fill="#fff" stroke="#12263f" stroke-width="1">
      <rect width="23" height="20" stroke="none"/>
      <rect x="0.5" y="0.5" width="22" height="19" fill="none"/>
    </g>
    <g id="Rectangle_472687" data-name="Rectangle 472687" transform="translate(37.452 4852.73)" fill="#fff" stroke="#12263f" stroke-width="1">
      <rect width="23" height="19" stroke="none"/>
      <rect x="0.5" y="0.5" width="22" height="18" fill="none"/>
    </g>
    <g id="Rectangle_472688" data-name="Rectangle 472688" transform="translate(58.452 4852.73)" fill="#fff" stroke="#12263f" stroke-width="1">
      <rect width="24" height="19" stroke="none"/>
      <rect x="0.5" y="0.5" width="23" height="18" fill="none"/>
    </g>
    <g id="Rectangle_472691" data-name="Rectangle 472691" transform="translate(80.452 4852.73)" fill="#fff" stroke="#12263f" stroke-width="1">
      <rect width="23" height="19" stroke="none"/>
      <rect x="0.5" y="0.5" width="22" height="18" fill="none"/>
    </g>
    <g id="Rectangle_472704" data-name="Rectangle 472704" transform="translate(215.452 4852.73)" fill="#fff" stroke="#12263f" stroke-width="1">
      <rect width="23" height="19" stroke="none"/>
      <rect x="0.5" y="0.5" width="22" height="18" fill="none"/>
    </g>
  </g>
</svg>
